<svg width="436" height="960" viewBox="-10 -5 456 975" fill="none" xmlns="http://www.w3.org/2000/svg">
<path d="M142.332 416.528C142.332 416.528 80.6351 456.042 58.1053 475.798C56.1727 477.405 54.3258 479.14 52.5619 480.996M80.9816 302.123C104.922 343.181 129.646 390.921 142.332 416.528C142.332 416.528 166.872 494.931 165.208 529.87M191.204 546.506C238.621 497.426 238.69 433.857 232.798 408.208C230.302 390.739 213.734 344.778 205.762 323.981C203.314 320.197 200.914 316.38 198.564 312.543M232.798 408.208C262.953 408.555 343.02 433.164 376.295 473.718M376.295 473.718C409.569 514.271 415.809 540.26 419.968 558.984C424.127 577.708 424.959 677.732 403.33 757.593L380.454 862.616C396.398 863.309 428.079 874.886 427.247 915.648C419.621 936.098 385.653 969.511 310.785 939.564C288.255 928.126 238.621 882.581 220.32 791.907L210.961 750.315C198.83 839.741 149.611 1003 28.9901 934.366C8.19439 920.219 7.15314 899.36 9.23198 890.699C9.23198 879.885 41.8142 864.006 58.1053 857.418C30.1417 757.019 -8.69421 545.473 52.5619 480.996M376.295 473.718C385.445 485.364 390.506 464.706 391.892 452.921C389.397 372.23 365.203 302.145 353.418 277.189C333.315 295.559 285.829 331.26 256.714 327.101C245.33 327.447 217.762 325.021 198.564 312.543M198.564 312.543C165.788 259.02 142.815 201.691 135.053 178.404C126.734 159.271 131.587 103.883 135.053 78.5801C139.212 42.8098 114.603 20.0036 101.778 13.0718C51.8662 -3.56556 38.3484 28.6697 24.8305 53.6257C11.3127 78.5818 11.3127 199.202 48.7468 251.194C58.3963 264.596 69.6004 282.605 80.9816 302.123M80.9816 302.123C70.5832 316.688 49.5786 365.159 48.7468 442.522C49.2105 455.347 50.6228 480.996 52.5619 480.996" stroke="#6023BF" stroke-width="17" stroke-linecap="round"/>
<circle cx="191.203" cy="599.549" r="21.8365" fill="#6023BF"/>
<path d="M256.329 536.351C259.126 558.724 248.172 580.631 242.346 588.787C250.736 585.991 278.469 580.631 291.286 578.3C330.439 581.097 361.201 574.804 371.688 571.309C405.247 548.936 399.654 513.046 392.663 497.898C375.184 480.42 350.714 476.924 308.765 476.924C266.816 476.924 252.833 508.385 256.329 536.351Z" stroke="#6023BF" stroke-width="17"/>
<circle cx="291.287" cy="529.36" r="9.9872" fill="#6023BF" stroke="#6023BF"/>
<circle cx="326.244" cy="529.36" r="9.9872" fill="#6023BF" stroke="#6023BF"/>
<circle cx="361.201" cy="529.36" r="9.9872" fill="#6023BF" stroke="#6023BF"/>
</svg>
